<?xml version="1.0" ?><svg style="enable-background:new 0 0 512 512;" version="1.1" viewBox="0 0 512 512" xml:space="preserve" xmlns="http://www.w3.org/2000/svg" xmlns:xlink="http://www.w3.org/1999/xlink"><g id="_x31__x5F_Green_Energy"><g id="XMLID_704_"><g id="XMLID_752_"><g id="XMLID_1065_"><linearGradient gradientTransform="matrix(0.7314 -0.682 0.682 0.7314 -259.2675 303.8112)" gradientUnits="userSpaceOnUse" id="XMLID_2_" x1="202.1367" x2="309.8656" y1="481" y2="481"><stop offset="0" style="stop-color:#6857C7"/><stop offset="1" style="stop-color:#AA99FF"/></linearGradient><rect height="40" id="XMLID_1074_" style="fill:url(#XMLID_2_);" width="110" x="201.001" y="461"/><linearGradient gradientTransform="matrix(0.7314 -0.682 0.682 0.7314 -231.9875 293.0654)" gradientUnits="userSpaceOnUse" id="XMLID_3_" x1="202.1367" x2="309.8656" y1="441" y2="441"><stop offset="0" style="stop-color:#6857C7"/><stop offset="1" style="stop-color:#AA99FF"/></linearGradient><polygon id="XMLID_1073_" points="311.001,421 311.001,461 201.001,461 201.001,421 256.001,421           " style="fill:url(#XMLID_3_);"/><linearGradient gradientTransform="matrix(0.7314 -0.682 0.682 0.7314 -88.5829 279.1191)" gradientUnits="userSpaceOnUse" id="XMLID_4_" x1="100.3988" x2="431.2383" y1="221.4919" y2="221.4919"><stop offset="0" style="stop-color:#DEB644"/><stop offset="1" style="stop-color:#FFF886"/></linearGradient><path d="M256.001,421h-55h-20c-5.47-48.61-21.28-75.62-47.23-117.09      c-13.98-22.34-22.01-48.79-21.85-77.13c0.44-80.37,65.71-144.35,146.08-143.26c78.65,1.07,142.08,65.16,142.08,144.07      c0,27.62-7.77,53.43-21.25,75.35c-12.91,21-23.49,38.26-31.53,56.4c-8.04,18.14-13.54,37.16-16.3,61.66h-20H256.001z       M228.751,278.75c3.89-14.57,0.12-30.76-11.31-42.19c-11.43-11.43-27.62-15.2-42.19-11.31c-3.89,14.57-0.12,30.76,11.31,42.19      C197.991,278.87,214.181,282.64,228.751,278.75z M283.251,278.75c14.57,3.89,30.76,0.12,42.19-11.31      c11.43-11.43,15.2-27.62,11.31-42.19c-14.57-3.89-30.76-0.12-42.19,11.31C283.131,247.99,279.361,264.18,283.251,278.75z" id="XMLID_1068_" style="fill:url(#XMLID_4_);"/><linearGradient gradientTransform="matrix(0.7314 -0.682 0.682 0.7314 -88.5829 279.1191)" gradientUnits="userSpaceOnUse" id="XMLID_5_" x1="272.194" x2="347.8083" y1="252" y2="252"><stop offset="0" style="stop-color:#6AD92A"/><stop offset="1" style="stop-color:#ACFF6C"/></linearGradient><path d="M336.751,225.25c3.89,14.57,0.12,30.76-11.31,42.19      c-11.43,11.43-27.62,15.2-42.19,11.31c-3.89-14.57-0.12-30.76,11.31-42.19C305.991,225.13,322.181,221.36,336.751,225.25z" id="XMLID_1067_" style="fill:url(#XMLID_5_);"/><linearGradient gradientTransform="matrix(0.7314 -0.682 0.682 0.7314 -117.5967 205.4633)" gradientUnits="userSpaceOnUse" id="XMLID_6_" x1="180.1519" x2="223.8504" y1="252" y2="252"><stop offset="0" style="stop-color:#6AD92A"/><stop offset="1" style="stop-color:#ACFF6C"/></linearGradient><path d="M217.441,236.56c11.43,11.43,15.2,27.62,11.31,42.19      c-14.57,3.89-30.76,0.12-42.19-11.31c-11.43-11.43-15.2-27.62-11.31-42.19C189.821,221.36,206.011,225.13,217.441,236.56z" id="XMLID_1066_" style="fill:url(#XMLID_6_);"/></g><g id="XMLID_1025_"><g id="XMLID_1064_"><path d="M331.001,431h-20c-5.522,0-10-4.478-10-10s4.478-10,10-10h11.207       c2.955-20.25,7.987-37.744,15.95-55.712c8.392-18.933,19.403-36.845,32.154-57.585c12.933-21.031,19.769-45.275,19.769-70.113       c0-72.935-59.312-133.079-132.216-134.071c-36.171-0.478-70.264,13.094-95.905,38.252       c-25.622,25.138-39.841,58.899-40.039,95.063c-0.144,25.474,6.885,50.292,20.327,71.771       c24.895,39.783,40.988,67.357,47.547,112.395h11.206c5.523,0,10,4.478,10,10s-4.477,10-10,10h-20       c-5.09,0-9.368-3.823-9.938-8.882c-5.201-46.227-20.022-71.758-45.77-112.903c-15.456-24.698-23.538-53.223-23.373-82.492       c0.228-41.535,16.575-80.327,46.032-109.228c29.477-28.92,68.625-44.519,110.184-43.974       c40.708,0.554,78.891,16.826,107.515,45.818c28.65,29.021,44.43,67.465,44.43,108.25c0,28.539-7.86,56.406-22.731,80.589       c-12.373,20.126-23.06,37.508-30.906,55.213c-8.243,18.599-13.025,36.711-15.505,58.728       C340.368,427.177,336.091,431,331.001,431z" id="XMLID_56_"/></g><g id="XMLID_1035_"><path d="M311.001,511h-110c-5.523,0-10-4.478-10-10v-80c0-5.522,4.477-10,10-10h110c5.522,0,10,4.478,10,10v80       C321.001,506.522,316.523,511,311.001,511z M211.001,491h90v-60h-90V491z" id="XMLID_53_"/></g><g id="XMLID_1034_"><path d="M341.001,471h-170c-5.523,0-10-4.478-10-10s4.477-10,10-10h170c5.522,0,10,4.478,10,10       S346.523,471,341.001,471z" id="XMLID_52_"/></g><g id="XMLID_1033_"><path d="M256.001,51c-5.523,0-10-4.477-10-10V11c0-5.523,4.477-10,10-10c5.522,0,10,4.477,10,10v30       C266.001,46.523,261.523,51,256.001,51z" id="XMLID_51_"/></g><g id="XMLID_1032_"><path d="M171.611,61.61c-2.559,0-5.118-0.976-7.071-2.929l-21.22-21.22c-3.905-3.905-3.906-10.237,0-14.142       s10.237-3.906,14.142,0l21.22,21.22c3.905,3.905,3.906,10.237,0,14.142C176.73,60.633,174.17,61.61,171.611,61.61z" id="XMLID_50_"/></g><g id="XMLID_1031_"><path d="M330.392,61.61c-2.56,0-5.118-0.976-7.071-2.929c-3.905-3.905-3.905-10.237,0-14.143l21.22-21.22       c3.906-3.905,10.236-3.905,14.143,0c3.905,3.905,3.905,10.237,0,14.143l-21.22,21.22       C335.51,60.634,332.951,61.61,330.392,61.61z" id="XMLID_49_"/></g><g id="XMLID_1029_"><path d="M217.532,290.22c-14.08,0-27.866-5.532-38.042-15.708c-13.505-13.507-18.832-33.371-13.901-51.841       c0.923-3.458,3.624-6.159,7.082-7.083c18.471-4.933,38.335,0.395,51.841,13.9c0,0,0,0,0,0       c13.505,13.506,18.832,33.37,13.9,51.84c-0.923,3.458-3.624,6.159-7.083,7.083C226.777,289.627,222.138,290.22,217.532,290.22z        M183.879,233.877c-0.758,9.727,2.74,19.478,9.753,26.493c7.013,7.013,16.766,10.516,26.491,9.752       c0.758-9.727-2.739-19.477-9.753-26.491S193.599,233.117,183.879,233.877z" id="XMLID_46_"/></g><g id="XMLID_1028_"><path d="M294.47,290.22c-4.607,0-9.243-0.592-13.798-1.808c-3.458-0.924-6.159-3.625-7.083-7.083       c-4.931-18.471,0.396-38.335,13.901-51.84v0c0,0,0,0,0,0c13.506-13.505,33.367-18.832,51.841-13.9       c3.457,0.923,6.158,3.624,7.081,7.082c4.933,18.47-0.394,38.334-13.899,51.841C322.337,284.687,308.549,290.219,294.47,290.22z        M291.879,270.122c9.729,0.76,19.477-2.739,26.492-9.753c7.014-7.015,10.511-16.764,9.752-26.492       c-9.721-0.751-19.477,2.739-26.49,9.753v0C294.619,250.645,291.121,260.395,291.879,270.122z" id="XMLID_43_"/></g><g id="XMLID_1027_"><path d="M256.001,431c-5.523,0-10-4.478-10-10V321c0-5.522,4.477-10,10-10c5.522,0,10,4.478,10,10v100       C266.001,426.522,261.523,431,256.001,431z" id="XMLID_42_"/></g><g id="XMLID_1026_"><path d="M256.001,331c-3.397,0-6.563-1.725-8.404-4.58l-27.25-42.25c-2.993-4.641-1.658-10.83,2.984-13.823       c4.639-2.994,10.83-1.657,13.824,2.983l18.846,29.221l18.847-29.221c2.993-4.641,9.184-5.979,13.823-2.983       c4.642,2.993,5.978,9.183,2.983,13.823l-27.25,42.25C262.563,329.275,259.398,331,256.001,331z" id="XMLID_41_"/></g></g></g></g></g><g id="Layer_1"/></svg>